<svg height="512pt" viewBox="0 0 512 512.00747" width="512pt" xmlns="http://www.w3.org/2000/svg"><path d="m256.003906 512c-96.078125.890625-174.777344-76.101562-176-172.175781 0-88.785157 146.304688-297.886719 162.992188-321.441407l13.007812-18.382812 13.007813 18.382812c16.6875 23.554688 162.992187 232.65625 162.992187 321.441407-1.222656 96.074219-79.921875 173.066406-176 172.175781zm0 0" fill="#92c5ff"/><path d="m64.003906 176c-35.347656 0-63.99999975-28.652344-63.99999975-64 0-31.054688 43.39062475-80.992188 52.09765575-90.6875l11.902344-13.3125 11.902344 13.265625c8.707031 9.742187 52.097656 59.679687 52.097656 90.734375 0 35.347656-28.652344 64-64 64zm0 0" fill="#1998f1"/><path d="m448.003906 176c-35.347656 0-64-28.652344-64-64 0-31.054688 43.390625-80.992188 52.097656-90.6875l11.902344-13.3125 11.902344 13.265625c8.707031 9.742187 52.097656 59.679687 52.097656 90.734375 0 35.347656-28.652344 64-64 64zm0 0" fill="#1998f1"/><path d="m192.003906 208h32v32h-32zm0 0" fill="#fff"/><path d="m224.003906 288h32v32h-32zm0 0" fill="#fff"/><path d="m256.003906 432c-79.292968.425781-149.023437-52.367188-170.128906-128.800781-3.542969 11.902343-5.515625 24.214843-5.871094 36.625 1.222656 96.074219 79.921875 173.066406 176 172.175781 96.078125.890625 174.777344-76.101562 176-172.175781-.355468-12.410157-2.328125-24.722657-5.871094-36.625-21.105468 76.433593-90.835937 129.226562-170.128906 128.800781zm0 0" fill="#7cb7f2"/></svg>