<svg height="512pt" viewBox="0 -96 512 512" width="512pt" xmlns="http://www.w3.org/2000/svg"><path d="m501.992188 280c-5.523438 0-10 4.476562-10 10s4.476562 10 10 10h.007812c5.523438 0 9.996094-4.476562 9.996094-10s-4.480469-10-10.003906-10zm0 0"/><path d="m456.996094 280h-40.996094v-60h86c5.523438 0 10-4.476562 10-10s-4.476562-10-10-10h-86v-10c0-5.523438-4.476562-10-10-10h-40c-5.523438 0-10 4.476562-10 10h-40v-40c5.523438 0 10-4.476562 10-10v-40c0-5.523438-4.476562-10-10-10h-30v-30h30c16.542969 0 30-13.457031 30-30s-13.457031-30-30-30h-30c-5.523438 0-10 4.476562-10 10s4.476562 10 10 10h30c5.511719 0 10 4.484375 10 10s-4.488281 10-10 10h-120c-5.515625 0-10-4.484375-10-10s4.484375-10 10-10c5.523438 0 10-4.476562 10-10s-4.476562-10-10-10c-16.542969 0-30 13.457031-30 30s13.457031 30 30 30h30v30h-30c-5.523438 0-10 4.476562-10 10v40c0 5.523438 4.476562 10 10 10v40h-40c0-5.523438-4.476562-10-10-10h-40c-5.523438 0-10 4.476562-10 10v10h-86c-5.523438 0-10 4.476562-10 10s4.476562 10 10 10h86v60h-86c-5.523438 0-10 4.476562-10 10s4.476562 10 10 10h86v10c0 5.523438 4.476562 10 10 10h40c5.523438 0 10-4.476562 10-10h200c0 5.523438 4.476562 10 10 10h40c5.523438 0 10-4.476562 10-10v-10h40.996094c5.523437 0 10-4.476562 10-10s-4.476563-10-10-10zm-210.996094-220h20v30h-20zm-40 50h100v20h-100zm-70 190h-20v-100h20zm20-10v-80h50c5.523438 0 10-4.476562 10-10v-50h80v50c0 5.523438 4.476562 10 10 10h50v80zm240 10h-20v-100h20zm0 0"/><path d="m241.003906 20c5.523438 0 10-4.476562 10-10s-4.476562-10-10-10h-.007812c-5.523438 0-9.996094 4.476562-9.996094 10s4.480469 10 10.003906 10zm0 0"/></svg>